<?xml version="1.0" encoding="utf-8"?>
<!-- Generator: Adobe Illustrator 21.1.0, SVG Export Plug-In . SVG Version: 6.00 Build 0)  -->
<svg version="1.1" id="Layer_1" xmlns="http://www.w3.org/2000/svg" xmlns:xlink="http://www.w3.org/1999/xlink" x="0px" y="0px"
	 viewBox="0 0 50.3 48.2" style="enable-background:new 0 0 50.3 48.2;" xml:space="preserve">
<style type="text/css">
	.st0{filter:url(#Adobe_OpacityMaskFilter);}
	.st1{fill:#FFFFFF;}
	.st2{mask:url(#mask-2_2_);}
</style>
<g id="Group-3" transform="translate(0.000000, 0.259638)">
	<g id="Clip-2">
	</g>
	<defs>
		<filter id="Adobe_OpacityMaskFilter" filterUnits="userSpaceOnUse" x="0" y="-0.3" width="50.3" height="48.2">
			<feColorMatrix  type="matrix" values="1 0 0 0 0  0 1 0 0 0  0 0 1 0 0  0 0 0 1 0"/>
		</filter>
	</defs>
	<mask maskUnits="userSpaceOnUse" x="0" y="-0.3" width="50.3" height="48.2" id="mask-2_2_">
		<g class="st0">
			<polygon id="path-1_2_" class="st1" points="25.1,48 0,48 0,-0.3 25.1,-0.3 50.3,-0.3 50.3,48 			"/>
		</g>
	</mask>
	<path id="Fill-1" class="st2" d="M5.7,29.4c-0.8,1.4-1.2,3-1.2,4.6c0,5.2,4.1,9.4,9.2,9.4h22.9c5.1,0,9.2-4.2,9.2-9.4
		c0-1.6-0.4-3.2-1.2-4.6L33.1,9c-0.4-0.7-0.9-1.4-1.5-2c-3.6-3.7-9.4-3.7-13,0c-0.6,0.6-1.1,1.2-1.5,2L5.7,29.4z M36.6,48H13.7
		C6.1,48,0,41.7,0,34c0-2.4,0.6-4.8,1.8-6.8l0,0L13.3,6.7c0.6-1.1,1.3-2,2.2-2.9c2.6-2.6,6-4.1,9.7-4.1c3.7,0,7.1,1.5,9.7,4.1
		c0.8,0.9,1.6,1.8,2.2,2.9l11.5,20.4c1.2,2.1,1.8,4.5,1.8,6.9C50.3,41.7,44.1,48,36.6,48L36.6,48z"/>
</g>
</svg>
